<mxfile host="app.diagrams.net" modified="2022-04-02T14:56:26.888Z" agent="5.0 (Macintosh; Intel Mac OS X 10_15_7) AppleWebKit/537.36 (KHTML, like Gecko) Chrome/99.0.4844.84 Safari/537.36" etag="tN1Q_V0snWY7zhGR-N5N" version="17.4.0" type="github">
  <diagram id="Oz-zoJeAY0YVI5TCNw1N" name="Page-1">
    <mxGraphModel dx="1880" dy="1003" grid="1" gridSize="10" guides="1" tooltips="1" connect="1" arrows="1" fold="1" page="1" pageScale="1" pageWidth="827" pageHeight="1169" math="0" shadow="0">
      <root>
        <mxCell id="0" />
        <mxCell id="1" parent="0" />
        <mxCell id="jbJmzEyZNLae6nJtdJ13-15" style="edgeStyle=orthogonalEdgeStyle;rounded=0;orthogonalLoop=1;jettySize=auto;html=1;entryX=0.5;entryY=0;entryDx=0;entryDy=0;" parent="1" source="jbJmzEyZNLae6nJtdJ13-1" target="jbJmzEyZNLae6nJtdJ13-2" edge="1">
          <mxGeometry relative="1" as="geometry" />
        </mxCell>
        <mxCell id="jbJmzEyZNLae6nJtdJ13-1" value="팀장이 &#39;프로젝트 종료&#39; 상태로 변경" style="ellipse;whiteSpace=wrap;html=1;" parent="1" vertex="1">
          <mxGeometry x="50" y="60" width="120" height="70" as="geometry" />
        </mxCell>
        <mxCell id="jbJmzEyZNLae6nJtdJ13-16" style="edgeStyle=orthogonalEdgeStyle;rounded=0;orthogonalLoop=1;jettySize=auto;html=1;entryX=0.5;entryY=0;entryDx=0;entryDy=0;" parent="1" source="jbJmzEyZNLae6nJtdJ13-2" target="jbJmzEyZNLae6nJtdJ13-3" edge="1">
          <mxGeometry relative="1" as="geometry" />
        </mxCell>
        <mxCell id="jbJmzEyZNLae6nJtdJ13-2" value="프로젝트 종료 상태 변경" style="rounded=1;whiteSpace=wrap;html=1;" parent="1" vertex="1">
          <mxGeometry x="40" y="170" width="140" height="40" as="geometry" />
        </mxCell>
        <mxCell id="jbJmzEyZNLae6nJtdJ13-17" style="edgeStyle=orthogonalEdgeStyle;rounded=0;orthogonalLoop=1;jettySize=auto;html=1;entryX=0.5;entryY=0;entryDx=0;entryDy=0;" parent="1" source="jbJmzEyZNLae6nJtdJ13-3" target="jbJmzEyZNLae6nJtdJ13-4" edge="1">
          <mxGeometry relative="1" as="geometry" />
        </mxCell>
        <mxCell id="jbJmzEyZNLae6nJtdJ13-3" value="마이페이지 - 내가 한 프로젝트 목록 이동" style="rounded=1;whiteSpace=wrap;html=1;" parent="1" vertex="1">
          <mxGeometry x="55" y="240" width="110" height="60" as="geometry" />
        </mxCell>
        <mxCell id="jbJmzEyZNLae6nJtdJ13-18" style="edgeStyle=orthogonalEdgeStyle;rounded=0;orthogonalLoop=1;jettySize=auto;html=1;entryX=0.5;entryY=0;entryDx=0;entryDy=0;" parent="1" source="jbJmzEyZNLae6nJtdJ13-4" target="jbJmzEyZNLae6nJtdJ13-5" edge="1">
          <mxGeometry relative="1" as="geometry" />
        </mxCell>
        <mxCell id="jbJmzEyZNLae6nJtdJ13-4" value="프로젝트 제목 우측 &#39;평가하기&#39; 버튼 클릭" style="rounded=1;whiteSpace=wrap;html=1;" parent="1" vertex="1">
          <mxGeometry x="50" y="340" width="120" height="60" as="geometry" />
        </mxCell>
        <mxCell id="jbJmzEyZNLae6nJtdJ13-19" style="edgeStyle=orthogonalEdgeStyle;rounded=0;orthogonalLoop=1;jettySize=auto;html=1;entryX=0.5;entryY=0;entryDx=0;entryDy=0;" parent="1" source="jbJmzEyZNLae6nJtdJ13-5" target="jbJmzEyZNLae6nJtdJ13-6" edge="1">
          <mxGeometry relative="1" as="geometry" />
        </mxCell>
        <mxCell id="jbJmzEyZNLae6nJtdJ13-5" value="평가 페이지로 이동" style="rounded=1;whiteSpace=wrap;html=1;" parent="1" vertex="1">
          <mxGeometry x="50" y="440" width="120" height="40" as="geometry" />
        </mxCell>
        <mxCell id="jbJmzEyZNLae6nJtdJ13-21" style="edgeStyle=orthogonalEdgeStyle;rounded=0;orthogonalLoop=1;jettySize=auto;html=1;entryX=0.5;entryY=0;entryDx=0;entryDy=0;" parent="1" source="jbJmzEyZNLae6nJtdJ13-6" target="jbJmzEyZNLae6nJtdJ13-7" edge="1">
          <mxGeometry relative="1" as="geometry" />
        </mxCell>
        <mxCell id="jbJmzEyZNLae6nJtdJ13-6" value="평가하려는 팀원 아이디 우측 &#39;평가&#39; 버튼 클릭" style="rounded=1;whiteSpace=wrap;html=1;" parent="1" vertex="1">
          <mxGeometry x="50" y="525" width="120" height="60" as="geometry" />
        </mxCell>
        <mxCell id="jbJmzEyZNLae6nJtdJ13-22" style="edgeStyle=orthogonalEdgeStyle;rounded=0;orthogonalLoop=1;jettySize=auto;html=1;" parent="1" source="jbJmzEyZNLae6nJtdJ13-7" target="jbJmzEyZNLae6nJtdJ13-8" edge="1">
          <mxGeometry relative="1" as="geometry" />
        </mxCell>
        <mxCell id="jbJmzEyZNLae6nJtdJ13-7" value="항목별 평가하기" style="rounded=1;whiteSpace=wrap;html=1;" parent="1" vertex="1">
          <mxGeometry x="50" y="620" width="120" height="40" as="geometry" />
        </mxCell>
        <mxCell id="jbJmzEyZNLae6nJtdJ13-23" style="edgeStyle=orthogonalEdgeStyle;rounded=0;orthogonalLoop=1;jettySize=auto;html=1;entryX=0.5;entryY=0;entryDx=0;entryDy=0;" parent="1" source="jbJmzEyZNLae6nJtdJ13-8" target="jbJmzEyZNLae6nJtdJ13-12" edge="1">
          <mxGeometry relative="1" as="geometry" />
        </mxCell>
        <mxCell id="jbJmzEyZNLae6nJtdJ13-8" value="제출" style="rounded=1;whiteSpace=wrap;html=1;" parent="1" vertex="1">
          <mxGeometry x="50" y="700" width="120" height="40" as="geometry" />
        </mxCell>
        <mxCell id="jbJmzEyZNLae6nJtdJ13-11" style="edgeStyle=orthogonalEdgeStyle;rounded=0;orthogonalLoop=1;jettySize=auto;html=1;entryX=0;entryY=0.5;entryDx=0;entryDy=0;" parent="1" source="jbJmzEyZNLae6nJtdJ13-9" target="jbJmzEyZNLae6nJtdJ13-5" edge="1">
          <mxGeometry relative="1" as="geometry">
            <Array as="points">
              <mxPoint x="20" y="880" />
              <mxPoint x="20" y="460" />
            </Array>
          </mxGeometry>
        </mxCell>
        <mxCell id="jbJmzEyZNLae6nJtdJ13-14" style="edgeStyle=orthogonalEdgeStyle;rounded=0;orthogonalLoop=1;jettySize=auto;html=1;entryX=0;entryY=0.5;entryDx=0;entryDy=0;" parent="1" source="jbJmzEyZNLae6nJtdJ13-9" target="jbJmzEyZNLae6nJtdJ13-13" edge="1">
          <mxGeometry relative="1" as="geometry" />
        </mxCell>
        <mxCell id="jbJmzEyZNLae6nJtdJ13-9" value="모든 팀원의 &lt;br&gt;평가가 끝났는가?" style="rhombus;whiteSpace=wrap;html=1;" parent="1" vertex="1">
          <mxGeometry x="40" y="840" width="140" height="80" as="geometry" />
        </mxCell>
        <mxCell id="jbJmzEyZNLae6nJtdJ13-24" style="edgeStyle=orthogonalEdgeStyle;rounded=0;orthogonalLoop=1;jettySize=auto;html=1;entryX=0.5;entryY=0;entryDx=0;entryDy=0;" parent="1" source="jbJmzEyZNLae6nJtdJ13-12" target="jbJmzEyZNLae6nJtdJ13-9" edge="1">
          <mxGeometry relative="1" as="geometry" />
        </mxCell>
        <mxCell id="jbJmzEyZNLae6nJtdJ13-12" value="팀원의 user 프로필에 &lt;br&gt;점수 반영" style="rounded=1;whiteSpace=wrap;html=1;" parent="1" vertex="1">
          <mxGeometry x="50" y="770" width="120" height="40" as="geometry" />
        </mxCell>
        <mxCell id="jbJmzEyZNLae6nJtdJ13-13" value="프로젝트의 평가 버튼 삭제" style="rounded=1;whiteSpace=wrap;html=1;" parent="1" vertex="1">
          <mxGeometry x="250" y="850" width="140" height="60" as="geometry" />
        </mxCell>
        <mxCell id="jbJmzEyZNLae6nJtdJ13-25" value="Y" style="text;html=1;align=center;verticalAlign=middle;resizable=0;points=[];autosize=1;strokeColor=none;fillColor=none;" parent="1" vertex="1">
          <mxGeometry x="180" y="860" width="20" height="20" as="geometry" />
        </mxCell>
        <mxCell id="jbJmzEyZNLae6nJtdJ13-26" value="N" style="text;html=1;align=center;verticalAlign=middle;resizable=0;points=[];autosize=1;strokeColor=none;fillColor=none;" parent="1" vertex="1">
          <mxGeometry x="20" y="850" width="20" height="20" as="geometry" />
        </mxCell>
        <mxCell id="jbJmzEyZNLae6nJtdJ13-27" value="팀원 정보 DB" style="shape=cylinder3;whiteSpace=wrap;html=1;boundedLbl=1;backgroundOutline=1;size=15;" parent="1" vertex="1">
          <mxGeometry x="414" y="240" width="136" height="80" as="geometry" />
        </mxCell>
        <mxCell id="jbJmzEyZNLae6nJtdJ13-28" value="프로젝트 DB" style="shape=cylinder3;whiteSpace=wrap;html=1;boundedLbl=1;backgroundOutline=1;size=15;" parent="1" vertex="1">
          <mxGeometry x="414" y="370" width="136" height="80" as="geometry" />
        </mxCell>
        <mxCell id="jbJmzEyZNLae6nJtdJ13-29" value="사용자 DB" style="shape=cylinder3;whiteSpace=wrap;html=1;boundedLbl=1;backgroundOutline=1;size=15;" parent="1" vertex="1">
          <mxGeometry x="590" y="300" width="136" height="80" as="geometry" />
        </mxCell>
        <mxCell id="jbJmzEyZNLae6nJtdJ13-30" value="" style="endArrow=none;dashed=1;html=1;dashPattern=1 3;strokeWidth=2;rounded=0;exitX=1;exitY=0.25;exitDx=0;exitDy=0;entryX=0;entryY=0;entryDx=0;entryDy=15;entryPerimeter=0;" parent="1" source="jbJmzEyZNLae6nJtdJ13-3" target="jbJmzEyZNLae6nJtdJ13-27" edge="1">
          <mxGeometry width="50" height="50" relative="1" as="geometry">
            <mxPoint x="220" y="310" as="sourcePoint" />
            <mxPoint x="270" y="260" as="targetPoint" />
          </mxGeometry>
        </mxCell>
        <mxCell id="jbJmzEyZNLae6nJtdJ13-31" value="" style="endArrow=none;dashed=1;html=1;dashPattern=1 3;strokeWidth=2;rounded=0;exitX=1.021;exitY=0.4;exitDx=0;exitDy=0;exitPerimeter=0;entryX=0.5;entryY=1;entryDx=0;entryDy=0;entryPerimeter=0;" parent="1" source="jbJmzEyZNLae6nJtdJ13-13" target="jbJmzEyZNLae6nJtdJ13-28" edge="1">
          <mxGeometry width="50" height="50" relative="1" as="geometry">
            <mxPoint x="450" y="900" as="sourcePoint" />
            <mxPoint x="500" y="850" as="targetPoint" />
            <Array as="points">
              <mxPoint x="480" y="874" />
            </Array>
          </mxGeometry>
        </mxCell>
        <mxCell id="jbJmzEyZNLae6nJtdJ13-32" value="" style="endArrow=none;dashed=1;html=1;dashPattern=1 3;strokeWidth=2;rounded=0;exitX=1;exitY=0.5;exitDx=0;exitDy=0;entryX=0.5;entryY=1;entryDx=0;entryDy=0;entryPerimeter=0;" parent="1" source="jbJmzEyZNLae6nJtdJ13-12" target="jbJmzEyZNLae6nJtdJ13-29" edge="1">
          <mxGeometry width="50" height="50" relative="1" as="geometry">
            <mxPoint x="250" y="710" as="sourcePoint" />
            <mxPoint x="300" y="660" as="targetPoint" />
            <Array as="points">
              <mxPoint x="650" y="790" />
            </Array>
          </mxGeometry>
        </mxCell>
        <mxCell id="jbJmzEyZNLae6nJtdJ13-33" value="" style="endArrow=none;dashed=1;html=1;dashPattern=1 3;strokeWidth=2;rounded=0;exitX=1;exitY=0;exitDx=0;exitDy=0;entryX=0;entryY=0.5;entryDx=0;entryDy=0;entryPerimeter=0;" parent="1" source="jbJmzEyZNLae6nJtdJ13-9" target="jbJmzEyZNLae6nJtdJ13-27" edge="1">
          <mxGeometry width="50" height="50" relative="1" as="geometry">
            <mxPoint x="390" y="500" as="sourcePoint" />
            <mxPoint x="440" y="450" as="targetPoint" />
            <Array as="points">
              <mxPoint x="220" y="860" />
              <mxPoint x="220" y="710" />
              <mxPoint x="350" y="710" />
              <mxPoint x="360" y="280" />
            </Array>
          </mxGeometry>
        </mxCell>
        <mxCell id="jbJmzEyZNLae6nJtdJ13-34" value="" style="endArrow=none;dashed=1;html=1;dashPattern=1 3;strokeWidth=2;rounded=0;exitX=1;exitY=0.5;exitDx=0;exitDy=0;entryX=0;entryY=0.5;entryDx=0;entryDy=0;entryPerimeter=0;" parent="1" source="jbJmzEyZNLae6nJtdJ13-2" target="jbJmzEyZNLae6nJtdJ13-28" edge="1">
          <mxGeometry width="50" height="50" relative="1" as="geometry">
            <mxPoint x="390" y="500" as="sourcePoint" />
            <mxPoint x="440" y="450" as="targetPoint" />
            <Array as="points">
              <mxPoint x="240" y="190" />
              <mxPoint x="240" y="410" />
            </Array>
          </mxGeometry>
        </mxCell>
        <mxCell id="Z8u1uZ676X57QCp4BMcz-1" value="평가" style="text;html=1;align=center;verticalAlign=middle;resizable=0;points=[];autosize=1;strokeColor=none;fillColor=none;" vertex="1" parent="1">
          <mxGeometry x="30" y="30" width="40" height="20" as="geometry" />
        </mxCell>
      </root>
    </mxGraphModel>
  </diagram>
</mxfile>
